<svg width="512" height="512" viewBox="0 0 512 512" fill="none" xmlns="http://www.w3.org/2000/svg">
<rect width="512" height="512" fill="black"/>
<path d="M54.6063 139H242.406V206.5H223.206L213.606 161.5H168.006V330.4L199.806 337.6V355H97.2063V337.6L129.006 330.4V161.5H83.1063L73.8063 206.5H54.6063V139ZM419.355 240.4C415.755 243.2 411.655 245.9 407.055 248.5C402.655 251.1 396.955 253.2 389.955 254.8C390.955 255.8 392.555 257.6 394.755 260.2C396.955 262.6 399.055 265.5 401.055 268.9L438.255 331.9L464.955 337.6V355H394.155V337.6L354.855 260.5H326.055V331.3L354.555 337.6V355H261.855V337.6L287.055 331.3V162.7L261.855 156.4V139H374.055C383.655 139 392.055 139.9 399.255 141.7C406.655 143.5 413.155 146.4 418.755 150.4C425.955 155.4 431.655 162.1 435.855 170.5C440.055 178.7 442.155 187 442.155 195.4C442.155 203.8 440.055 212.1 435.855 220.3C431.855 228.3 426.355 235 419.355 240.4ZM326.055 238.6H359.955C370.955 238.6 380.055 235.5 387.255 229.3C391.255 225.9 394.355 221.4 396.555 215.8C398.955 210 400.155 203.8 400.155 197.2C400.155 191.2 398.955 185.8 396.555 181C394.155 176 390.955 171.9 386.955 168.7C380.355 163.5 370.955 160.9 358.755 160.9H326.055V238.6Z" fill="white"/>
</svg>
